<?xml version="1.0" standalone="no"?>
<!DOCTYPE svg PUBLIC "-//W3C//DTD SVG 20010904//EN"
 "http://www.w3.org/TR/2001/REC-SVG-20010904/DTD/svg10.dtd">
<svg version="1.0" xmlns="http://www.w3.org/2000/svg"
 width="32.000000pt" height="32.000000pt" viewBox="0 0 32.000000 32.000000"
 preserveAspectRatio="xMidYMid meet">
<metadata>
Created by potrace 1.16, written by Peter Selinger 2001-2019
</metadata>
<g transform="translate(0.000000,32.000000) scale(0.100000,-0.100000)"
fill="#000000" stroke="none">
<path d="M72 300 c-48 -30 -72 -75 -72 -140 0 -99 60 -160 157 -160 52 0 103
16 103 32 0 4 -7 8 -15 8 -8 0 -15 4 -15 9 0 5 -18 2 -39 -6 -94 -37 -178 48
-150 151 20 72 92 110 164 86 54 -18 77 -60 83 -148 4 -69 6 -73 18 -51 7 13
13 49 14 79 0 65 -23 110 -72 140 -45 27 -131 27 -176 0z"/>
<path d="M115 215 c-33 -32 -33 -78 0 -110 13 -14 33 -25 45 -25 32 0 70 44
70 80 0 36 -38 80 -70 80 -11 0 -32 -11 -45 -25z"/>
</g>
</svg>
